<?xml version="1.0" encoding="UTF-8" standalone="no"?>
<!DOCTYPE svg PUBLIC "-//W3C//DTD SVG 1.1//EN"
 "http://www.w3.org/Graphics/SVG/1.1/DTD/svg11.dtd">
<!-- Generated by graphviz version 2.48.0 (0)
 -->
<!-- Title: aktual_df Pages: 1 -->
<svg width="971pt" height="1012pt"
 viewBox="0.00 0.00 971.11 1011.53" xmlns="http://www.w3.org/2000/svg" xmlns:xlink="http://www.w3.org/1999/xlink">
<g id="graph0" class="graph" transform="scale(1 1) rotate(0) translate(4 1007.53)">
<title>aktual_df</title>
<polygon fill="white" stroke="transparent" points="-4,4 -4,-1007.53 967.11,-1007.53 967.11,4 -4,4"/>
<!-- amb -->
<g id="node1" class="node">
<title>amb</title>
<ellipse fill="none" stroke="black" cx="934.63" cy="-575.04" rx="27" ry="18"/>
<text text-anchor="middle" x="934.63" y="-571.34" font-family="Times,serif" font-size="14.00">amb</text>
</g>
<!-- mks -->
<g id="node20" class="node">
<title>mks</title>
<ellipse fill="none" stroke="black" cx="734.87" cy="-533.93" rx="27" ry="18"/>
<text text-anchor="middle" x="734.87" y="-530.23" font-family="Times,serif" font-size="14.00">mks</text>
</g>
<!-- amb&#45;&gt;mks -->
<g id="edge66" class="edge">
<title>amb&#45;&gt;mks</title>
<path fill="none" stroke="black" d="M915.82,-561.98C881.72,-554.96 813.25,-540.87 771.54,-532.29"/>
<polygon fill="black" stroke="black" points="772.05,-528.82 761.55,-530.23 770.63,-535.67 772.05,-528.82"/>
</g>
<!-- bpp -->
<g id="node2" class="node">
<title>bpp</title>
<ellipse fill="none" stroke="black" cx="575.98" cy="-760.49" rx="27" ry="18"/>
<text text-anchor="middle" x="575.98" y="-756.79" font-family="Times,serif" font-size="14.00">bpp</text>
</g>
<!-- jkt -->
<g id="node11" class="node">
<title>jkt</title>
<ellipse fill="none" stroke="black" cx="474.69" cy="-538.56" rx="27" ry="18"/>
<text text-anchor="middle" x="474.69" y="-534.86" font-family="Times,serif" font-size="14.00">jkt</text>
</g>
<!-- bpp&#45;&gt;jkt -->
<g id="edge27" class="edge">
<title>bpp&#45;&gt;jkt</title>
<path fill="none" stroke="black" d="M567.35,-743.29C549.9,-708.47 512.03,-632.94 512.03,-632.94 512.03,-632.94 496.43,-593.5 485.39,-565.61"/>
<polygon fill="black" stroke="black" points="488.65,-564.32 481.71,-556.31 482.14,-566.89 488.65,-564.32"/>
</g>
<!-- pal -->
<g id="node30" class="node">
<title>pal</title>
<ellipse fill="none" stroke="black" cx="751.97" cy="-898.62" rx="27" ry="18"/>
<text text-anchor="middle" x="751.97" y="-894.92" font-family="Times,serif" font-size="14.00">pal</text>
</g>
<!-- bpp&#45;&gt;pal -->
<g id="edge29" class="edge">
<title>bpp&#45;&gt;pal</title>
<path fill="none" stroke="black" d="M583.65,-777.95C612.33,-800.47 680.77,-854.18 719.14,-884.3"/>
<polygon fill="black" stroke="black" points="717.27,-887.28 727.3,-890.7 721.59,-881.77 717.27,-887.28"/>
</g>
<!-- smr -->
<g id="node36" class="node">
<title>smr</title>
<ellipse fill="none" stroke="black" cx="660.46" cy="-959.84" rx="27" ry="18"/>
<text text-anchor="middle" x="660.46" y="-956.14" font-family="Times,serif" font-size="14.00">smr</text>
</g>
<!-- bpp&#45;&gt;smr -->
<g id="edge28" class="edge">
<title>bpp&#45;&gt;smr</title>
<path fill="none" stroke="black" d="M573.9,-778.66C587.97,-811.86 622.46,-893.23 640.6,-936.03"/>
<polygon fill="black" stroke="black" points="637.4,-937.44 644.52,-945.28 643.84,-934.71 637.4,-937.44"/>
</g>
<!-- tar -->
<g id="node42" class="node">
<title>tar</title>
<ellipse fill="none" stroke="black" cx="553.09" cy="-985.53" rx="27" ry="18"/>
<text text-anchor="middle" x="553.09" y="-981.83" font-family="Times,serif" font-size="14.00">tar</text>
</g>
<!-- bpp&#45;&gt;tar -->
<g id="edge26" class="edge">
<title>bpp&#45;&gt;tar</title>
<path fill="none" stroke="black" d="M565.23,-777.24C561.24,-816.47 551.61,-911.1 546.87,-957.73"/>
<polygon fill="black" stroke="black" points="543.36,-957.66 545.83,-967.97 550.32,-958.37 543.36,-957.66"/>
</g>
<!-- bna -->
<g id="node3" class="node">
<title>bna</title>
<ellipse fill="none" stroke="black" cx="357.87" cy="-970.96" rx="27" ry="18"/>
<text text-anchor="middle" x="357.87" y="-967.26" font-family="Times,serif" font-size="14.00">bna</text>
</g>
<!-- mdn -->
<g id="node26" class="node">
<title>mdn</title>
<ellipse fill="none" stroke="black" cx="335.59" cy="-748.72" rx="27" ry="18"/>
<text text-anchor="middle" x="335.59" y="-745.02" font-family="Times,serif" font-size="14.00">mdn</text>
</g>
<!-- bna&#45;&gt;mdn -->
<g id="edge64" class="edge">
<title>bna&#45;&gt;mdn</title>
<path fill="none" stroke="black" d="M365.15,-953.36C361.34,-915.33 351.98,-822.02 347.3,-775.34"/>
<polygon fill="black" stroke="black" points="350.78,-774.93 346.3,-765.33 343.81,-775.63 350.78,-774.93"/>
</g>
<!-- bdg -->
<g id="node4" class="node">
<title>bdg</title>
<ellipse fill="none" stroke="black" cx="346" cy="-419.91" rx="27" ry="18"/>
<text text-anchor="middle" x="346" y="-416.21" font-family="Times,serif" font-size="14.00">bdg</text>
</g>
<!-- bdg&#45;&gt;jkt -->
<g id="edge86" class="edge">
<title>bdg&#45;&gt;jkt</title>
<path fill="none" stroke="black" d="M352.24,-437.9C373.2,-457.22 416.13,-496.81 443.58,-522.11"/>
<polygon fill="black" stroke="black" points="441.49,-524.95 451.22,-529.16 446.24,-519.81 441.49,-524.95"/>
</g>
<!-- tsm -->
<g id="node43" class="node">
<title>tsm</title>
<ellipse fill="none" stroke="black" cx="116.07" cy="-315.76" rx="27" ry="18"/>
<text text-anchor="middle" x="116.07" y="-312.06" font-family="Times,serif" font-size="14.00">tsm</text>
</g>
<!-- bdg&#45;&gt;tsm -->
<g id="edge87" class="edge">
<title>bdg&#45;&gt;tsm</title>
<path fill="none" stroke="black" d="M332.81,-404.05C294.79,-386.83 202.02,-344.81 152.38,-322.33"/>
<polygon fill="black" stroke="black" points="153.61,-319.04 143.06,-318.1 150.73,-325.42 153.61,-319.04"/>
</g>
<!-- bjm -->
<g id="node5" class="node">
<title>bjm</title>
<ellipse fill="none" stroke="black" cx="633.39" cy="-644.82" rx="27" ry="18"/>
<text text-anchor="middle" x="633.39" y="-641.12" font-family="Times,serif" font-size="14.00">bjm</text>
</g>
<!-- bjm&#45;&gt;jkt -->
<g id="edge74" class="edge">
<title>bjm&#45;&gt;jkt</title>
<path fill="none" stroke="black" d="M624.03,-627.73C598.05,-610.33 542.77,-573.31 508.67,-550.48"/>
<polygon fill="black" stroke="black" points="510.32,-547.37 500.07,-544.72 506.43,-553.19 510.32,-547.37"/>
</g>
<!-- plk -->
<g id="node28" class="node">
<title>plk</title>
<ellipse fill="none" stroke="black" cx="804.22" cy="-818.26" rx="27" ry="18"/>
<text text-anchor="middle" x="804.22" y="-814.56" font-family="Times,serif" font-size="14.00">plk</text>
</g>
<!-- bjm&#45;&gt;plk -->
<g id="edge75" class="edge">
<title>bjm&#45;&gt;plk</title>
<path fill="none" stroke="black" d="M638.45,-662.79C666.11,-690.87 736.91,-762.75 774.13,-800.54"/>
<polygon fill="black" stroke="black" points="772.03,-803.39 781.54,-808.06 777.02,-798.48 772.03,-803.39"/>
</g>
<!-- btm -->
<g id="node6" class="node">
<title>btm</title>
<ellipse fill="none" stroke="black" cx="417.49" cy="-626.74" rx="27" ry="18"/>
<text text-anchor="middle" x="417.49" y="-623.04" font-family="Times,serif" font-size="14.00">btm</text>
</g>
<!-- btm&#45;&gt;jkt -->
<g id="edge15" class="edge">
<title>btm&#45;&gt;jkt</title>
<path fill="none" stroke="black" d="M436.62,-613.79C445.7,-599.79 458.38,-580.23 468.07,-565.29"/>
<polygon fill="black" stroke="black" points="471.16,-566.97 473.66,-556.68 465.28,-563.16 471.16,-566.97"/>
</g>
<!-- bgl -->
<g id="node7" class="node">
<title>bgl</title>
<ellipse fill="none" stroke="black" cx="63.55" cy="-408.39" rx="27" ry="18"/>
<text text-anchor="middle" x="63.55" y="-404.69" font-family="Times,serif" font-size="14.00">bgl</text>
</g>
<!-- bdl -->
<g id="node18" class="node">
<title>bdl</title>
<ellipse fill="none" stroke="black" cx="301.5" cy="-476.99" rx="27" ry="18"/>
<text text-anchor="middle" x="301.5" y="-473.29" font-family="Times,serif" font-size="14.00">bdl</text>
</g>
<!-- bgl&#45;&gt;bdl -->
<g id="edge59" class="edge">
<title>bgl&#45;&gt;bdl</title>
<path fill="none" stroke="black" d="M80.53,-422.65C120.82,-434.27 213.8,-461.07 264.5,-475.69"/>
<polygon fill="black" stroke="black" points="263.77,-479.12 274.35,-478.53 265.71,-472.39 263.77,-479.12"/>
</g>
<!-- cbn -->
<g id="node8" class="node">
<title>cbn</title>
<ellipse fill="none" stroke="black" cx="475.88" cy="-412.86" rx="27" ry="18"/>
<text text-anchor="middle" x="475.88" y="-409.16" font-family="Times,serif" font-size="14.00">cbn</text>
</g>
<!-- cbn&#45;&gt;jkt -->
<g id="edge23" class="edge">
<title>cbn&#45;&gt;jkt</title>
<path fill="none" stroke="black" d="M466.72,-429.99C466.52,-450.96 466.18,-486.63 465.95,-511.31"/>
<polygon fill="black" stroke="black" points="462.45,-511.43 465.85,-521.46 469.44,-511.5 462.45,-511.43"/>
</g>
<!-- dpr -->
<g id="node9" class="node">
<title>dpr</title>
<ellipse fill="none" stroke="black" cx="788.02" cy="-194.65" rx="27" ry="18"/>
<text text-anchor="middle" x="788.02" y="-190.95" font-family="Times,serif" font-size="14.00">dpr</text>
</g>
<!-- mtr -->
<g id="node25" class="node">
<title>mtr</title>
<ellipse fill="none" stroke="black" cx="903.75" cy="-18" rx="27" ry="18"/>
<text text-anchor="middle" x="903.75" y="-14.3" font-family="Times,serif" font-size="14.00">mtr</text>
</g>
<!-- dpr&#45;&gt;mtr -->
<g id="edge60" class="edge">
<title>dpr&#45;&gt;mtr</title>
<path fill="none" stroke="black" d="M807.28,-181.68C828.59,-149.15 873.59,-80.45 896.79,-45.05"/>
<polygon fill="black" stroke="black" points="899.9,-46.69 902.45,-36.41 894.04,-42.86 899.9,-46.69"/>
</g>
<!-- sby -->
<g id="node41" class="node">
<title>sby</title>
<ellipse fill="none" stroke="black" cx="585.34" cy="-315.61" rx="27" ry="18"/>
<text text-anchor="middle" x="585.34" y="-311.91" font-family="Times,serif" font-size="14.00">sby</text>
</g>
<!-- dpr&#45;&gt;sby -->
<g id="edge61" class="edge">
<title>dpr&#45;&gt;sby</title>
<path fill="none" stroke="black" d="M761.71,-199.87C723.43,-222.72 644.16,-270.03 604.46,-293.72"/>
<polygon fill="black" stroke="black" points="602.51,-290.81 595.72,-298.94 606.1,-296.82 602.51,-290.81"/>
</g>
<!-- gto -->
<g id="node10" class="node">
<title>gto</title>
<ellipse fill="none" stroke="black" cx="465.14" cy="-959.12" rx="27" ry="18"/>
<text text-anchor="middle" x="465.14" y="-955.42" font-family="Times,serif" font-size="14.00">gto</text>
</g>
<!-- mnd -->
<g id="node23" class="node">
<title>mnd</title>
<ellipse fill="none" stroke="black" cx="466.99" cy="-726.1" rx="27" ry="18"/>
<text text-anchor="middle" x="466.99" y="-722.4" font-family="Times,serif" font-size="14.00">mnd</text>
</g>
<!-- gto&#45;&gt;mnd -->
<g id="edge30" class="edge">
<title>gto&#45;&gt;mnd</title>
<path fill="none" stroke="black" d="M474.28,-942.06C474.59,-902 475.39,-801.93 475.78,-753.41"/>
<polygon fill="black" stroke="black" points="479.28,-753.36 475.86,-743.33 472.28,-753.3 479.28,-753.36"/>
</g>
<!-- jkt&#45;&gt;bpp -->
<g id="edge48" class="edge">
<title>jkt&#45;&gt;bpp</title>
<path fill="none" stroke="black" d="M478.92,-556.52C485.72,-585.43 498.34,-639.06 498.34,-639.06 498.34,-639.06 537.21,-699.86 559.95,-735.42"/>
<polygon fill="black" stroke="black" points="557.01,-737.32 565.34,-743.86 562.91,-733.55 557.01,-737.32"/>
</g>
<!-- jkt&#45;&gt;bdg -->
<g id="edge46" class="edge">
<title>jkt&#45;&gt;bdg</title>
<path fill="none" stroke="black" d="M468.45,-520.56C447.49,-501.24 404.56,-461.65 377.11,-436.35"/>
<polygon fill="black" stroke="black" points="379.2,-433.51 369.47,-429.3 374.45,-438.66 379.2,-433.51"/>
</g>
<!-- jkt&#45;&gt;bjm -->
<g id="edge54" class="edge">
<title>jkt&#45;&gt;bjm</title>
<path fill="none" stroke="black" d="M484.04,-555.65C510.03,-573.05 565.31,-610.07 599.41,-632.9"/>
<polygon fill="black" stroke="black" points="597.76,-636.01 608.01,-638.66 601.65,-630.19 597.76,-636.01"/>
</g>
<!-- jkt&#45;&gt;btm -->
<g id="edge50" class="edge">
<title>jkt&#45;&gt;btm</title>
<path fill="none" stroke="black" d="M455.56,-551.5C446.48,-565.51 433.8,-585.06 424.11,-600"/>
<polygon fill="black" stroke="black" points="421.02,-598.32 418.52,-608.62 426.9,-602.13 421.02,-598.32"/>
</g>
<!-- jkt&#45;&gt;cbn -->
<g id="edge45" class="edge">
<title>jkt&#45;&gt;cbn</title>
<path fill="none" stroke="black" d="M483.85,-521.43C484.05,-500.46 484.39,-464.79 484.62,-440.1"/>
<polygon fill="black" stroke="black" points="488.12,-439.98 484.72,-429.95 481.12,-439.92 488.12,-439.98"/>
</g>
<!-- jkt&#45;&gt;bdl -->
<g id="edge53" class="edge">
<title>jkt&#45;&gt;bdl</title>
<path fill="none" stroke="black" d="M459.5,-523.6C430.76,-513.39 374.44,-493.36 338.19,-480.48"/>
<polygon fill="black" stroke="black" points="339.13,-477.1 328.54,-477.05 336.79,-483.69 339.13,-477.1"/>
</g>
<!-- jkt&#45;&gt;mks -->
<g id="edge49" class="edge">
<title>jkt&#45;&gt;mks</title>
<path fill="none" stroke="black" d="M498.86,-547.13C545.47,-546.3 648.28,-544.47 701.56,-543.52"/>
<polygon fill="black" stroke="black" points="701.89,-547.02 711.83,-543.34 701.77,-540.02 701.89,-547.02"/>
</g>
<!-- jkt&#45;&gt;mnd -->
<g id="edge55" class="edge">
<title>jkt&#45;&gt;mnd</title>
<path fill="none" stroke="black" d="M464.99,-555.49C463.64,-588.24 460.72,-659.46 459.11,-698.6"/>
<polygon fill="black" stroke="black" points="455.61,-698.6 458.7,-708.74 462.6,-698.89 455.61,-698.6"/>
</g>
<!-- jkt&#45;&gt;mdn -->
<g id="edge56" class="edge">
<title>jkt&#45;&gt;mdn</title>
<path fill="none" stroke="black" d="M451.78,-548.39C451.4,-548.55 451.2,-548.63 451.2,-548.63 451.2,-548.63 385.35,-603.78 385.35,-603.78 385.35,-603.78 375.58,-619.81 375.58,-619.81 375.58,-619.81 355.89,-683.27 344.14,-721.14"/>
<polygon fill="black" stroke="black" points="340.68,-720.48 341.06,-731.07 347.37,-722.55 340.68,-720.48"/>
</g>
<!-- plg -->
<g id="node29" class="node">
<title>plg</title>
<ellipse fill="none" stroke="black" cx="251.73" cy="-570.53" rx="27" ry="18"/>
<text text-anchor="middle" x="251.73" y="-566.83" font-family="Times,serif" font-size="14.00">plg</text>
</g>
<!-- jkt&#45;&gt;plg -->
<g id="edge43" class="edge">
<title>jkt&#45;&gt;plg</title>
<path fill="none" stroke="black" d="M448.7,-533.19C407.97,-539.03 326.82,-550.67 282,-557.1"/>
<polygon fill="black" stroke="black" points="281.37,-553.65 271.97,-558.54 282.36,-560.58 281.37,-553.65"/>
</g>
<!-- pbr -->
<g id="node32" class="node">
<title>pbr</title>
<ellipse fill="none" stroke="black" cx="313.73" cy="-599.31" rx="27" ry="18"/>
<text text-anchor="middle" x="313.73" y="-595.61" font-family="Times,serif" font-size="14.00">pbr</text>
</g>
<!-- jkt&#45;&gt;pbr -->
<g id="edge42" class="edge">
<title>jkt&#45;&gt;pbr</title>
<path fill="none" stroke="black" d="M447.41,-539.23C418.26,-550.23 369.27,-568.73 338.49,-580.34"/>
<polygon fill="black" stroke="black" points="336.93,-577.19 328.81,-584 339.4,-583.74 336.93,-577.19"/>
</g>
<!-- ptk -->
<g id="node34" class="node">
<title>ptk</title>
<ellipse fill="none" stroke="black" cx="602.54" cy="-508.82" rx="27" ry="18"/>
<text text-anchor="middle" x="602.54" y="-505.12" font-family="Times,serif" font-size="14.00">ptk</text>
</g>
<!-- jkt&#45;&gt;ptk -->
<g id="edge52" class="edge">
<title>jkt&#45;&gt;ptk</title>
<path fill="none" stroke="black" d="M501.38,-541.59C522.18,-536.75 552.03,-529.81 574.28,-524.63"/>
<polygon fill="black" stroke="black" points="575.27,-528 584.22,-522.32 573.68,-521.18 575.27,-528"/>
</g>
<!-- smg -->
<g id="node37" class="node">
<title>smg</title>
<ellipse fill="none" stroke="black" cx="368.57" cy="-316.82" rx="27" ry="18"/>
<text text-anchor="middle" x="368.57" y="-313.12" font-family="Times,serif" font-size="14.00">smg</text>
</g>
<!-- jkt&#45;&gt;smg -->
<g id="edge47" class="edge">
<title>jkt&#45;&gt;smg</title>
<path fill="none" stroke="black" d="M476.01,-520.46C458.63,-484.16 412.38,-387.5 389.65,-340.02"/>
<polygon fill="black" stroke="black" points="392.78,-338.46 385.31,-330.95 386.47,-341.48 392.78,-338.46"/>
</g>
<!-- srg -->
<g id="node38" class="node">
<title>srg</title>
<ellipse fill="none" stroke="black" cx="564.91" cy="-436.5" rx="27" ry="18"/>
<text text-anchor="middle" x="564.91" y="-432.8" font-family="Times,serif" font-size="14.00">srg</text>
</g>
<!-- jkt&#45;&gt;srg -->
<g id="edge51" class="edge">
<title>jkt&#45;&gt;srg</title>
<path fill="none" stroke="black" d="M496.33,-527.66C512.27,-509.63 537.53,-481.06 554.34,-462.04"/>
<polygon fill="black" stroke="black" points="556.98,-464.34 560.98,-454.53 551.73,-459.71 556.98,-464.34"/>
</g>
<!-- jkt&#45;&gt;sby -->
<g id="edge57" class="edge">
<title>jkt&#45;&gt;sby</title>
<path fill="none" stroke="black" d="M491.81,-524.31C511.82,-484 559.77,-387.37 581.88,-342.83"/>
<polygon fill="black" stroke="black" points="585.12,-344.17 586.43,-333.66 578.85,-341.06 585.12,-344.17"/>
</g>
<!-- tte -->
<g id="node45" class="node">
<title>tte</title>
<ellipse fill="none" stroke="black" cx="540.63" cy="-633.12" rx="27" ry="18"/>
<text text-anchor="middle" x="540.63" y="-629.42" font-family="Times,serif" font-size="14.00">tte</text>
</g>
<!-- jkt&#45;&gt;tte -->
<g id="edge44" class="edge">
<title>jkt&#45;&gt;tte</title>
<path fill="none" stroke="black" d="M476.48,-556.85C486.45,-571.16 502.65,-594.39 515.2,-612.38"/>
<polygon fill="black" stroke="black" points="512.43,-614.53 521.02,-620.73 518.17,-610.52 512.43,-614.53"/>
</g>
<!-- jmb -->
<g id="node12" class="node">
<title>jmb</title>
<ellipse fill="none" stroke="black" cx="55.66" cy="-695.19" rx="27" ry="18"/>
<text text-anchor="middle" x="55.66" y="-691.49" font-family="Times,serif" font-size="14.00">jmb</text>
</g>
<!-- jmb&#45;&gt;plg -->
<g id="edge80" class="edge">
<title>jmb&#45;&gt;plg</title>
<path fill="none" stroke="black" d="M81.47,-689.45C118.51,-665.9 195.2,-617.14 233.6,-592.72"/>
<polygon fill="black" stroke="black" points="235.5,-595.66 242.06,-587.35 231.74,-589.76 235.5,-595.66"/>
</g>
<!-- jap -->
<g id="node13" class="node">
<title>jap</title>
<ellipse fill="none" stroke="black" cx="936.11" cy="-489.71" rx="27" ry="18"/>
<text text-anchor="middle" x="936.11" y="-486.01" font-family="Times,serif" font-size="14.00">jap</text>
</g>
<!-- jap&#45;&gt;mks -->
<g id="edge25" class="edge">
<title>jap&#45;&gt;mks</title>
<path fill="none" stroke="black" d="M909.5,-486.34C872.6,-494.45 803.12,-509.72 763.21,-518.49"/>
<polygon fill="black" stroke="black" points="762.28,-515.11 753.26,-520.67 763.78,-521.95 762.28,-515.11"/>
</g>
<!-- jmr -->
<g id="node14" class="node">
<title>jmr</title>
<ellipse fill="none" stroke="black" cx="694.78" cy="-166.33" rx="27" ry="18"/>
<text text-anchor="middle" x="694.78" y="-162.63" font-family="Times,serif" font-size="14.00">jmr</text>
</g>
<!-- jmr&#45;&gt;sby -->
<g id="edge35" class="edge">
<title>jmr&#45;&gt;sby</title>
<path fill="none" stroke="black" d="M674.75,-178.42C654.62,-205.89 615.55,-259.18 593.75,-288.92"/>
<polygon fill="black" stroke="black" points="590.67,-287.2 587.58,-297.33 596.31,-291.34 590.67,-287.2"/>
</g>
<!-- kdr -->
<g id="node15" class="node">
<title>kdr</title>
<ellipse fill="none" stroke="black" cx="513.98" cy="-106.98" rx="27" ry="18"/>
<text text-anchor="middle" x="513.98" y="-103.28" font-family="Times,serif" font-size="14.00">kdr</text>
</g>
<!-- kdr&#45;&gt;sby -->
<g id="edge34" class="edge">
<title>kdr&#45;&gt;sby</title>
<path fill="none" stroke="black" d="M510.6,-124.9C522.49,-159.65 552.06,-246.13 567.35,-290.81"/>
<polygon fill="black" stroke="black" points="564.09,-292.12 570.64,-300.45 570.72,-289.86 564.09,-292.12"/>
</g>
<!-- kdi -->
<g id="node16" class="node">
<title>kdi</title>
<ellipse fill="none" stroke="black" cx="906.04" cy="-409.37" rx="27" ry="18"/>
<text text-anchor="middle" x="906.04" y="-405.67" font-family="Times,serif" font-size="14.00">kdi</text>
</g>
<!-- kdi&#45;&gt;mks -->
<g id="edge19" class="edge">
<title>kdi&#45;&gt;mks</title>
<path fill="none" stroke="black" d="M881.11,-416.38C849.03,-439.73 785.57,-485.91 751.85,-510.44"/>
<polygon fill="black" stroke="black" points="749.6,-507.76 743.57,-516.47 753.72,-513.42 749.6,-507.76"/>
</g>
<!-- kpg -->
<g id="node17" class="node">
<title>kpg</title>
<ellipse fill="none" stroke="black" cx="843.86" cy="-354.26" rx="27" ry="18"/>
<text text-anchor="middle" x="843.86" y="-350.56" font-family="Times,serif" font-size="14.00">kpg</text>
</g>
<!-- kpg&#45;&gt;mks -->
<g id="edge5" class="edge">
<title>kpg&#45;&gt;mks</title>
<path fill="none" stroke="black" d="M825.31,-367.48C805.35,-400.39 762.82,-470.51 740.89,-506.66"/>
<polygon fill="black" stroke="black" points="737.72,-505.12 735.53,-515.49 743.71,-508.76 737.72,-505.12"/>
</g>
<!-- bdl&#45;&gt;bgl -->
<g id="edge33" class="edge">
<title>bdl&#45;&gt;bgl</title>
<path fill="none" stroke="black" d="M284.52,-462.73C244.23,-451.11 151.25,-424.31 100.55,-409.69"/>
<polygon fill="black" stroke="black" points="101.28,-406.26 90.7,-406.85 99.34,-412.99 101.28,-406.26"/>
</g>
<!-- bdl&#45;&gt;jkt -->
<g id="edge32" class="edge">
<title>bdl&#45;&gt;jkt</title>
<path fill="none" stroke="black" d="M316.7,-491.94C345.43,-502.16 401.75,-522.18 438.01,-535.07"/>
<polygon fill="black" stroke="black" points="437.06,-538.45 447.66,-538.5 439.41,-531.85 437.06,-538.45"/>
</g>
<!-- lsm -->
<g id="node19" class="node">
<title>lsm</title>
<ellipse fill="none" stroke="black" cx="261.31" cy="-946.27" rx="27" ry="18"/>
<text text-anchor="middle" x="261.31" y="-942.57" font-family="Times,serif" font-size="14.00">lsm</text>
</g>
<!-- lsm&#45;&gt;mdn -->
<g id="edge65" class="edge">
<title>lsm&#45;&gt;mdn</title>
<path fill="none" stroke="black" d="M276.59,-931.21C290.01,-895.53 319.72,-816.48 334.82,-776.33"/>
<polygon fill="black" stroke="black" points="338.17,-777.37 338.41,-766.78 331.62,-774.9 338.17,-777.37"/>
</g>
<!-- mks&#45;&gt;amb -->
<g id="edge73" class="edge">
<title>mks&#45;&gt;amb</title>
<path fill="none" stroke="black" d="M753.68,-546.99C787.78,-554.01 856.25,-568.1 897.96,-576.68"/>
<polygon fill="black" stroke="black" points="897.45,-580.15 907.95,-578.74 898.87,-573.29 897.45,-580.15"/>
</g>
<!-- mks&#45;&gt;jkt -->
<g id="edge67" class="edge">
<title>mks&#45;&gt;jkt</title>
<path fill="none" stroke="black" d="M710.7,-525.36C664.09,-526.19 561.28,-528.02 508,-528.96"/>
<polygon fill="black" stroke="black" points="507.67,-525.47 497.73,-529.14 507.79,-532.47 507.67,-525.47"/>
</g>
<!-- mks&#45;&gt;jap -->
<g id="edge70" class="edge">
<title>mks&#45;&gt;jap</title>
<path fill="none" stroke="black" d="M761.48,-537.3C798.38,-529.19 867.86,-513.92 907.77,-505.15"/>
<polygon fill="black" stroke="black" points="908.7,-508.53 917.72,-502.96 907.2,-501.69 908.7,-508.53"/>
</g>
<!-- mks&#45;&gt;kdi -->
<g id="edge68" class="edge">
<title>mks&#45;&gt;kdi</title>
<path fill="none" stroke="black" d="M759.8,-526.92C791.89,-503.57 855.34,-457.4 889.06,-432.86"/>
<polygon fill="black" stroke="black" points="891.32,-435.55 897.34,-426.83 887.2,-429.89 891.32,-435.55"/>
</g>
<!-- mks&#45;&gt;kpg -->
<g id="edge72" class="edge">
<title>mks&#45;&gt;kpg</title>
<path fill="none" stroke="black" d="M753.42,-520.71C773.38,-487.8 815.91,-417.68 837.84,-381.53"/>
<polygon fill="black" stroke="black" points="841,-383.06 843.2,-372.7 835.02,-379.43 841,-383.06"/>
</g>
<!-- mam -->
<g id="node22" class="node">
<title>mam</title>
<ellipse fill="none" stroke="black" cx="917.77" cy="-657.86" rx="29.5" ry="18"/>
<text text-anchor="middle" x="917.77" y="-654.16" font-family="Times,serif" font-size="14.00">mam</text>
</g>
<!-- mks&#45;&gt;mam -->
<g id="edge69" class="edge">
<title>mks&#45;&gt;mam</title>
<path fill="none" stroke="black" d="M744.18,-551.11C773.91,-571.25 842.79,-617.92 882.68,-644.96"/>
<polygon fill="black" stroke="black" points="880.73,-647.86 890.97,-650.57 884.66,-642.06 880.73,-647.86"/>
</g>
<!-- mnk -->
<g id="node24" class="node">
<title>mnk</title>
<ellipse fill="none" stroke="black" cx="860.19" cy="-715.22" rx="27" ry="18"/>
<text text-anchor="middle" x="860.19" y="-711.52" font-family="Times,serif" font-size="14.00">mnk</text>
</g>
<!-- mks&#45;&gt;mnk -->
<g id="edge71" class="edge">
<title>mks&#45;&gt;mnk</title>
<path fill="none" stroke="black" d="M736.48,-552.09C757.04,-581.82 807.71,-655.13 834.89,-694.44"/>
<polygon fill="black" stroke="black" points="832.06,-696.51 840.63,-702.74 837.82,-692.53 832.06,-696.51"/>
</g>
<!-- mlg -->
<g id="node21" class="node">
<title>mlg</title>
<ellipse fill="none" stroke="black" cx="607.28" cy="-107.37" rx="27" ry="18"/>
<text text-anchor="middle" x="607.28" y="-103.67" font-family="Times,serif" font-size="14.00">mlg</text>
</g>
<!-- mlg&#45;&gt;sby -->
<g id="edge16" class="edge">
<title>mlg&#45;&gt;sby</title>
<path fill="none" stroke="black" d="M596.46,-124.18C592.6,-160.81 583.73,-244.94 579.19,-288.09"/>
<polygon fill="black" stroke="black" points="575.7,-287.81 578.13,-298.12 582.66,-288.54 575.7,-287.81"/>
</g>
<!-- mam&#45;&gt;mks -->
<g id="edge17" class="edge">
<title>mam&#45;&gt;mks</title>
<path fill="none" stroke="black" d="M908.47,-640.68C878.4,-620.31 808.32,-572.83 768.64,-545.94"/>
<polygon fill="black" stroke="black" points="770.43,-542.93 760.19,-540.22 766.51,-548.72 770.43,-542.93"/>
</g>
<!-- mnd&#45;&gt;gto -->
<g id="edge78" class="edge">
<title>mnd&#45;&gt;gto</title>
<path fill="none" stroke="black" d="M457.86,-743.16C457.54,-783.23 456.74,-883.29 456.36,-931.81"/>
<polygon fill="black" stroke="black" points="452.86,-931.86 456.28,-941.89 459.86,-931.92 452.86,-931.86"/>
</g>
<!-- mnd&#45;&gt;jkt -->
<g id="edge76" class="edge">
<title>mnd&#45;&gt;jkt</title>
<path fill="none" stroke="black" d="M476.7,-709.16C478.04,-676.42 480.96,-605.2 482.57,-566.05"/>
<polygon fill="black" stroke="black" points="486.07,-566.06 482.98,-555.92 479.08,-565.77 486.07,-566.06"/>
</g>
<!-- mnd&#45;&gt;tte -->
<g id="edge77" class="edge">
<title>mnd&#45;&gt;tte</title>
<path fill="none" stroke="black" d="M479.82,-709.9C491.33,-695.37 508.38,-673.84 521.5,-657.27"/>
<polygon fill="black" stroke="black" points="524.49,-659.14 527.95,-649.13 519,-654.79 524.49,-659.14"/>
</g>
<!-- mnk&#45;&gt;mks -->
<g id="edge18" class="edge">
<title>mnk&#45;&gt;mks</title>
<path fill="none" stroke="black" d="M858.58,-697.06C838.03,-667.33 787.35,-594.02 760.18,-554.71"/>
<polygon fill="black" stroke="black" points="763,-552.64 754.44,-546.41 757.24,-556.62 763,-552.64"/>
</g>
<!-- mtr&#45;&gt;dpr -->
<g id="edge1" class="edge">
<title>mtr&#45;&gt;dpr</title>
<path fill="none" stroke="black" d="M884.49,-30.98C863.18,-63.51 818.17,-132.2 794.98,-167.6"/>
<polygon fill="black" stroke="black" points="791.87,-165.96 789.32,-176.24 797.73,-169.8 791.87,-165.96"/>
</g>
<!-- mdn&#45;&gt;bna -->
<g id="edge41" class="edge">
<title>mdn&#45;&gt;bna</title>
<path fill="none" stroke="black" d="M328.31,-766.32C332.12,-804.34 341.47,-897.66 346.15,-944.33"/>
<polygon fill="black" stroke="black" points="342.68,-944.74 347.16,-954.34 349.64,-944.05 342.68,-944.74"/>
</g>
<!-- mdn&#45;&gt;jkt -->
<g id="edge38" class="edge">
<title>mdn&#45;&gt;jkt</title>
<path fill="none" stroke="black" d="M343.22,-731.24C357.96,-697.51 388.89,-626.72 388.89,-626.72 388.89,-626.72 397.29,-612.87 397.29,-612.87 397.29,-612.87 432.81,-575.17 448.45,-558.83"/>
<polygon fill="black" stroke="black" points="451.19,-561.02 455.67,-551.42 446.18,-556.14 451.19,-561.02"/>
</g>
<!-- mdn&#45;&gt;lsm -->
<g id="edge37" class="edge">
<title>mdn&#45;&gt;lsm</title>
<path fill="none" stroke="black" d="M320.31,-763.78C306.9,-799.46 277.18,-878.51 262.08,-918.67"/>
<polygon fill="black" stroke="black" points="258.73,-917.62 258.49,-928.22 265.28,-920.09 258.73,-917.62"/>
</g>
<!-- pms -->
<g id="node33" class="node">
<title>pms</title>
<ellipse fill="none" stroke="black" cx="176.16" cy="-887.59" rx="27" ry="18"/>
<text text-anchor="middle" x="176.16" y="-883.89" font-family="Times,serif" font-size="14.00">pms</text>
</g>
<!-- mdn&#45;&gt;pms -->
<g id="edge40" class="edge">
<title>mdn&#45;&gt;pms</title>
<path fill="none" stroke="black" d="M311.7,-757.59C281.8,-783.64 222.03,-835.7 190.62,-863.06"/>
<polygon fill="black" stroke="black" points="188.16,-860.56 182.92,-869.77 192.76,-865.84 188.16,-860.56"/>
</g>
<!-- sbg -->
<g id="node39" class="node">
<title>sbg</title>
<ellipse fill="none" stroke="black" cx="119.97" cy="-804.74" rx="27" ry="18"/>
<text text-anchor="middle" x="119.97" y="-801.04" font-family="Times,serif" font-size="14.00">sbg</text>
</g>
<!-- mdn&#45;&gt;sbg -->
<g id="edge39" class="edge">
<title>mdn&#45;&gt;sbg</title>
<path fill="none" stroke="black" d="M308.59,-746.44C268.63,-756.82 190.05,-777.24 147.22,-788.36"/>
<polygon fill="black" stroke="black" points="146.2,-785.01 137.4,-790.92 147.96,-791.79 146.2,-785.01"/>
</g>
<!-- pad -->
<g id="node27" class="node">
<title>pad</title>
<ellipse fill="none" stroke="black" cx="61.82" cy="-619.51" rx="27" ry="18"/>
<text text-anchor="middle" x="61.82" y="-615.81" font-family="Times,serif" font-size="14.00">pad</text>
</g>
<!-- pad&#45;&gt;pbr -->
<g id="edge20" class="edge">
<title>pad&#45;&gt;pbr</title>
<path fill="none" stroke="black" d="M86.69,-626.54C132.11,-622.9 230.26,-615.03 281.61,-610.91"/>
<polygon fill="black" stroke="black" points="282.14,-614.38 291.83,-610.09 281.58,-607.4 282.14,-614.38"/>
</g>
<!-- plk&#45;&gt;bjm -->
<g id="edge88" class="edge">
<title>plk&#45;&gt;bjm</title>
<path fill="none" stroke="black" d="M799.16,-800.3C771.5,-772.22 700.7,-700.34 663.48,-662.55"/>
<polygon fill="black" stroke="black" points="665.58,-659.7 656.07,-655.03 660.6,-664.61 665.58,-659.7"/>
</g>
<!-- plg&#45;&gt;jkt -->
<g id="edge2" class="edge">
<title>plg&#45;&gt;jkt</title>
<path fill="none" stroke="black" d="M277.72,-575.9C318.45,-570.05 399.61,-558.42 444.42,-551.99"/>
<polygon fill="black" stroke="black" points="445.05,-555.43 454.46,-550.55 444.06,-548.5 445.05,-555.43"/>
</g>
<!-- plg&#45;&gt;jmb -->
<g id="edge3" class="edge">
<title>plg&#45;&gt;jmb</title>
<path fill="none" stroke="black" d="M225.92,-576.28C188.88,-599.83 112.19,-648.58 73.79,-673"/>
<polygon fill="black" stroke="black" points="71.89,-670.06 65.33,-678.38 75.65,-675.96 71.89,-670.06"/>
</g>
<!-- pgp -->
<g id="node31" class="node">
<title>pgp</title>
<ellipse fill="none" stroke="black" cx="27" cy="-515.37" rx="27" ry="18"/>
<text text-anchor="middle" x="27" y="-511.67" font-family="Times,serif" font-size="14.00">pgp</text>
</g>
<!-- plg&#45;&gt;pgp -->
<g id="edge4" class="edge">
<title>plg&#45;&gt;pgp</title>
<path fill="none" stroke="black" d="M233.94,-556.89C195.6,-547.49 111.24,-526.78 63.62,-515.09"/>
<polygon fill="black" stroke="black" points="64.31,-511.65 53.76,-512.67 62.64,-518.45 64.31,-511.65"/>
</g>
<!-- pal&#45;&gt;bpp -->
<g id="edge24" class="edge">
<title>pal&#45;&gt;bpp</title>
<path fill="none" stroke="black" d="M744.3,-881.16C715.61,-858.65 647.18,-804.93 608.81,-774.82"/>
<polygon fill="black" stroke="black" points="610.67,-771.83 600.65,-768.41 606.35,-777.34 610.67,-771.83"/>
</g>
<!-- pgp&#45;&gt;plg -->
<g id="edge79" class="edge">
<title>pgp&#45;&gt;plg</title>
<path fill="none" stroke="black" d="M44.8,-529C83.13,-538.41 167.5,-559.12 215.12,-570.81"/>
<polygon fill="black" stroke="black" points="214.43,-574.24 224.97,-573.23 216.1,-567.45 214.43,-574.24"/>
</g>
<!-- pbr&#45;&gt;jkt -->
<g id="edge62" class="edge">
<title>pbr&#45;&gt;jkt</title>
<path fill="none" stroke="black" d="M341.01,-598.63C370.16,-587.63 419.15,-569.14 449.93,-557.52"/>
<polygon fill="black" stroke="black" points="451.49,-560.67 459.61,-553.87 449.02,-554.12 451.49,-560.67"/>
</g>
<!-- pbr&#45;&gt;pad -->
<g id="edge63" class="edge">
<title>pbr&#45;&gt;pad</title>
<path fill="none" stroke="black" d="M288.86,-592.27C243.45,-595.92 145.3,-603.79 93.94,-607.9"/>
<polygon fill="black" stroke="black" points="93.41,-604.44 83.73,-608.72 93.97,-611.41 93.41,-604.44"/>
</g>
<!-- pms&#45;&gt;mdn -->
<g id="edge13" class="edge">
<title>pms&#45;&gt;mdn</title>
<path fill="none" stroke="black" d="M200.05,-878.72C229.95,-852.67 289.72,-800.61 321.13,-773.25"/>
<polygon fill="black" stroke="black" points="323.59,-775.75 328.83,-766.54 318.99,-770.47 323.59,-775.75"/>
</g>
<!-- ptk&#45;&gt;jkt -->
<g id="edge31" class="edge">
<title>ptk&#45;&gt;jkt</title>
<path fill="none" stroke="black" d="M575.85,-505.79C555.05,-510.62 525.2,-517.57 502.95,-522.74"/>
<polygon fill="black" stroke="black" points="501.96,-519.38 493.01,-525.05 503.55,-526.2 501.96,-519.38"/>
</g>
<!-- pwt -->
<g id="node35" class="node">
<title>pwt</title>
<ellipse fill="none" stroke="black" cx="308.91" cy="-114.52" rx="27" ry="18"/>
<text text-anchor="middle" x="308.91" y="-110.82" font-family="Times,serif" font-size="14.00">pwt</text>
</g>
<!-- pwt&#45;&gt;smg -->
<g id="edge6" class="edge">
<title>pwt&#45;&gt;smg</title>
<path fill="none" stroke="black" d="M304.86,-132.61C314.89,-166.63 338.92,-248.1 351.67,-291.32"/>
<polygon fill="black" stroke="black" points="348.39,-292.59 354.58,-301.19 355.1,-290.61 348.39,-292.59"/>
</g>
<!-- smr&#45;&gt;bpp -->
<g id="edge90" class="edge">
<title>smr&#45;&gt;bpp</title>
<path fill="none" stroke="black" d="M662.54,-941.67C648.47,-908.47 613.98,-827.1 595.84,-784.3"/>
<polygon fill="black" stroke="black" points="599.05,-782.89 591.92,-775.04 592.6,-785.62 599.05,-782.89"/>
</g>
<!-- smg&#45;&gt;jkt -->
<g id="edge8" class="edge">
<title>smg&#45;&gt;jkt</title>
<path fill="none" stroke="black" d="M367.25,-334.91C384.63,-371.22 430.88,-467.87 453.61,-515.35"/>
<polygon fill="black" stroke="black" points="450.48,-516.92 457.95,-524.43 456.79,-513.9 450.48,-516.92"/>
</g>
<!-- smg&#45;&gt;pwt -->
<g id="edge10" class="edge">
<title>smg&#45;&gt;pwt</title>
<path fill="none" stroke="black" d="M372.62,-298.74C362.59,-264.72 338.56,-183.24 325.81,-140.02"/>
<polygon fill="black" stroke="black" points="329.09,-138.76 322.9,-130.15 322.37,-140.74 329.09,-138.76"/>
</g>
<!-- slo -->
<g id="node40" class="node">
<title>slo</title>
<ellipse fill="none" stroke="black" cx="406.41" cy="-105.52" rx="27" ry="18"/>
<text text-anchor="middle" x="406.41" y="-101.82" font-family="Times,serif" font-size="14.00">slo</text>
</g>
<!-- smg&#45;&gt;slo -->
<g id="edge11" class="edge">
<title>smg&#45;&gt;slo</title>
<path fill="none" stroke="black" d="M380.66,-300.39C387.35,-263.04 402.75,-177.01 410.56,-133.43"/>
<polygon fill="black" stroke="black" points="414.05,-133.78 412.37,-123.32 407.16,-132.54 414.05,-133.78"/>
</g>
<!-- tgl -->
<g id="node44" class="node">
<title>tgl</title>
<ellipse fill="none" stroke="black" cx="154.26" cy="-234.78" rx="27" ry="18"/>
<text text-anchor="middle" x="154.26" y="-231.08" font-family="Times,serif" font-size="14.00">tgl</text>
</g>
<!-- smg&#45;&gt;tgl -->
<g id="edge12" class="edge">
<title>smg&#45;&gt;tgl</title>
<path fill="none" stroke="black" d="M353.88,-301.56C317.99,-287.82 236.73,-256.71 190.78,-239.12"/>
<polygon fill="black" stroke="black" points="191.85,-235.78 181.26,-235.48 189.35,-242.32 191.85,-235.78"/>
</g>
<!-- yyk -->
<g id="node46" class="node">
<title>yyk</title>
<ellipse fill="none" stroke="black" cx="219.67" cy="-162.04" rx="27" ry="18"/>
<text text-anchor="middle" x="219.67" y="-158.34" font-family="Times,serif" font-size="14.00">yyk</text>
</g>
<!-- smg&#45;&gt;yyk -->
<g id="edge9" class="edge">
<title>smg&#45;&gt;yyk</title>
<path fill="none" stroke="black" d="M363.86,-298.95C339.69,-273.82 282.18,-214.04 249.64,-180.21"/>
<polygon fill="black" stroke="black" points="251.78,-177.39 242.32,-172.61 246.73,-182.24 251.78,-177.39"/>
</g>
<!-- srg&#45;&gt;jkt -->
<g id="edge89" class="edge">
<title>srg&#45;&gt;jkt</title>
<path fill="none" stroke="black" d="M543.27,-447.39C527.33,-465.42 502.07,-493.99 485.26,-513.01"/>
<polygon fill="black" stroke="black" points="482.62,-510.71 478.62,-520.52 487.87,-515.34 482.62,-510.71"/>
</g>
<!-- sbg&#45;&gt;mdn -->
<g id="edge7" class="edge">
<title>sbg&#45;&gt;mdn</title>
<path fill="none" stroke="black" d="M146.97,-807.03C186.92,-796.65 265.51,-776.23 308.33,-765.1"/>
<polygon fill="black" stroke="black" points="309.35,-768.45 318.15,-762.55 307.59,-761.68 309.35,-768.45"/>
</g>
<!-- slo&#45;&gt;smg -->
<g id="edge91" class="edge">
<title>slo&#45;&gt;smg</title>
<path fill="none" stroke="black" d="M394.33,-121.95C387.64,-159.3 372.23,-245.33 364.43,-288.91"/>
<polygon fill="black" stroke="black" points="360.93,-288.56 362.61,-299.02 367.82,-289.79 360.93,-288.56"/>
</g>
<!-- sby&#45;&gt;dpr -->
<g id="edge85" class="edge">
<title>sby&#45;&gt;dpr</title>
<path fill="none" stroke="black" d="M611.64,-310.39C649.93,-287.54 729.2,-240.24 768.9,-216.55"/>
<polygon fill="black" stroke="black" points="770.84,-219.46 777.64,-211.33 767.26,-213.45 770.84,-219.46"/>
</g>
<!-- sby&#45;&gt;jkt -->
<g id="edge82" class="edge">
<title>sby&#45;&gt;jkt</title>
<path fill="none" stroke="black" d="M568.22,-329.85C548.21,-370.17 500.26,-466.79 478.15,-511.34"/>
<polygon fill="black" stroke="black" points="474.91,-509.99 473.6,-520.51 481.18,-513.11 474.91,-509.99"/>
</g>
<!-- sby&#45;&gt;jmr -->
<g id="edge84" class="edge">
<title>sby&#45;&gt;jmr</title>
<path fill="none" stroke="black" d="M605.37,-303.51C625.5,-276.05 664.57,-222.76 686.37,-193.02"/>
<polygon fill="black" stroke="black" points="689.45,-194.74 692.54,-184.6 683.8,-190.6 689.45,-194.74"/>
</g>
<!-- sby&#45;&gt;kdr -->
<g id="edge83" class="edge">
<title>sby&#45;&gt;kdr</title>
<path fill="none" stroke="black" d="M588.72,-297.69C576.84,-262.93 547.26,-176.46 531.98,-131.78"/>
<polygon fill="black" stroke="black" points="535.23,-130.47 528.68,-122.14 528.6,-132.73 535.23,-130.47"/>
</g>
<!-- sby&#45;&gt;mlg -->
<g id="edge81" class="edge">
<title>sby&#45;&gt;mlg</title>
<path fill="none" stroke="black" d="M596.16,-298.8C600.02,-262.17 608.88,-178.04 613.43,-134.89"/>
<polygon fill="black" stroke="black" points="616.92,-135.17 614.48,-124.86 609.96,-134.44 616.92,-135.17"/>
</g>
<!-- tar&#45;&gt;bpp -->
<g id="edge21" class="edge">
<title>tar&#45;&gt;bpp</title>
<path fill="none" stroke="black" d="M563.84,-968.79C567.83,-929.55 577.45,-834.92 582.19,-788.29"/>
<polygon fill="black" stroke="black" points="585.71,-788.36 583.24,-778.06 578.74,-787.65 585.71,-788.36"/>
</g>
<!-- tsm&#45;&gt;bdg -->
<g id="edge36" class="edge">
<title>tsm&#45;&gt;bdg</title>
<path fill="none" stroke="black" d="M129.27,-331.61C167.28,-348.83 260.05,-390.86 309.69,-413.34"/>
<polygon fill="black" stroke="black" points="308.46,-416.62 319.01,-417.56 311.35,-410.25 308.46,-416.62"/>
</g>
<!-- tgl&#45;&gt;smg -->
<g id="edge14" class="edge">
<title>tgl&#45;&gt;smg</title>
<path fill="none" stroke="black" d="M168.95,-250.04C204.84,-263.78 286.1,-294.88 332.05,-312.48"/>
<polygon fill="black" stroke="black" points="330.98,-315.81 341.57,-316.12 333.48,-309.28 330.98,-315.81"/>
</g>
<!-- tte&#45;&gt;jkt -->
<g id="edge22" class="edge">
<title>tte&#45;&gt;jkt</title>
<path fill="none" stroke="black" d="M538.84,-614.82C528.87,-600.52 512.67,-577.29 500.12,-559.29"/>
<polygon fill="black" stroke="black" points="502.89,-557.15 494.3,-550.94 497.15,-561.15 502.89,-557.15"/>
</g>
<!-- yyk&#45;&gt;smg -->
<g id="edge58" class="edge">
<title>yyk&#45;&gt;smg</title>
<path fill="none" stroke="black" d="M224.37,-179.91C248.54,-205.04 306.06,-264.82 338.6,-298.65"/>
<polygon fill="black" stroke="black" points="336.46,-301.47 345.91,-306.25 341.5,-296.62 336.46,-301.47"/>
</g>
</g>
</svg>
