<?xml version="1.0" encoding="UTF-8" standalone="no"?>
<!DOCTYPE svg PUBLIC "-//W3C//DTD SVG 1.1//EN"
 "http://www.w3.org/Graphics/SVG/1.1/DTD/svg11.dtd">
<!-- Generated by graphviz version 2.48.0 (0)
 -->
<!-- Title: testgraph Pages: 1 -->
<svg width="1207pt" height="491pt"
 viewBox="0.00 0.00 1206.65 490.71" xmlns="http://www.w3.org/2000/svg" xmlns:xlink="http://www.w3.org/1999/xlink">
<g id="graph0" class="graph" transform="scale(1 1) rotate(0) translate(4 486.71)">
<title>testgraph</title>
<polygon fill="white" stroke="transparent" points="-4,4 -4,-486.71 1202.65,-486.71 1202.65,4 -4,4"/>
<!-- tar -->
<g id="node1" class="node">
<title>tar</title>
<ellipse fill="none" stroke="black" cx="591.43" cy="-369.39" rx="27" ry="18"/>
<text text-anchor="middle" x="591.43" y="-365.69" font-family="Times,serif" font-size="14.00">tar</text>
</g>
<!-- bpp -->
<g id="node21" class="node">
<title>bpp</title>
<ellipse fill="none" stroke="black" cx="563.87" cy="-244.07" rx="27" ry="18"/>
<text text-anchor="middle" x="563.87" y="-240.37" font-family="Times,serif" font-size="14.00">bpp</text>
</g>
<!-- tar&#45;&#45;bpp -->
<g id="edge1" class="edge">
<title>tar&#45;&#45;bpp</title>
<path fill="none" stroke="black" d="M583.08,-352.21C571.53,-328.42 552.07,-288.36 552.07,-288.36 552.07,-288.36 555.86,-274.15 559.14,-261.83"/>
</g>
<!-- pbr -->
<g id="node2" class="node">
<title>pbr</title>
<ellipse fill="none" stroke="black" cx="184.66" cy="-318.96" rx="27" ry="18"/>
<text text-anchor="middle" x="184.66" y="-315.26" font-family="Times,serif" font-size="14.00">pbr</text>
</g>
<!-- jkt -->
<g id="node34" class="node">
<title>jkt</title>
<ellipse fill="none" stroke="black" cx="274.81" cy="-166.74" rx="27" ry="18"/>
<text text-anchor="middle" x="274.81" y="-163.04" font-family="Times,serif" font-size="14.00">jkt</text>
</g>
<!-- pbr&#45;&#45;jkt -->
<g id="edge2" class="edge">
<title>pbr&#45;&#45;jkt</title>
<path fill="none" stroke="black" d="M204.89,-307.04C219.2,-298.6 235.86,-288.79 235.86,-288.79 235.86,-288.79 244.26,-274.94 244.26,-274.94 244.26,-274.94 258.81,-230.94 258.81,-230.94 258.81,-230.94 265.62,-203.62 270.35,-184.63"/>
</g>
<!-- pad -->
<g id="node36" class="node">
<title>pad</title>
<ellipse fill="none" stroke="black" cx="122.93" cy="-269.32" rx="27" ry="18"/>
<text text-anchor="middle" x="122.93" y="-265.62" font-family="Times,serif" font-size="14.00">pad</text>
</g>
<!-- pbr&#45;&#45;pad -->
<g id="edge3" class="edge">
<title>pbr&#45;&#45;pad</title>
<path fill="none" stroke="black" d="M167.13,-304.87C158.72,-298.1 148.67,-290.02 140.28,-283.27"/>
</g>
<!-- mtr -->
<g id="node3" class="node">
<title>mtr</title>
<ellipse fill="none" stroke="black" cx="758.36" cy="-37.24" rx="27" ry="18"/>
<text text-anchor="middle" x="758.36" y="-33.54" font-family="Times,serif" font-size="14.00">mtr</text>
</g>
<!-- dpr -->
<g id="node40" class="node">
<title>dpr</title>
<ellipse fill="none" stroke="black" cx="696.31" cy="-29.03" rx="27" ry="18"/>
<text text-anchor="middle" x="696.31" y="-25.33" font-family="Times,serif" font-size="14.00">dpr</text>
</g>
<!-- mtr&#45;&#45;dpr -->
<g id="edge4" class="edge">
<title>mtr&#45;&#45;dpr</title>
<path fill="none" stroke="black" d="M731.69,-33.71C728.79,-33.33 725.85,-32.94 722.96,-32.55"/>
</g>
<!-- plg -->
<g id="node4" class="node">
<title>plg</title>
<ellipse fill="none" stroke="black" cx="230.21" cy="-230.88" rx="27" ry="18"/>
<text text-anchor="middle" x="230.21" y="-227.18" font-family="Times,serif" font-size="14.00">plg</text>
</g>
<!-- pgp -->
<g id="node32" class="node">
<title>pgp</title>
<ellipse fill="none" stroke="black" cx="298.93" cy="-277.36" rx="27" ry="18"/>
<text text-anchor="middle" x="298.93" y="-273.66" font-family="Times,serif" font-size="14.00">pgp</text>
</g>
<!-- plg&#45;&#45;pgp -->
<g id="edge7" class="edge">
<title>plg&#45;&#45;pgp</title>
<path fill="none" stroke="black" d="M249.35,-243.82C258.88,-250.27 270.37,-258.04 279.89,-264.48"/>
</g>
<!-- plg&#45;&#45;jkt -->
<g id="edge5" class="edge">
<title>plg&#45;&#45;jkt</title>
<path fill="none" stroke="black" d="M241.69,-214.36C248.3,-204.86 256.58,-192.96 263.21,-183.43"/>
</g>
<!-- jmb -->
<g id="node37" class="node">
<title>jmb</title>
<ellipse fill="none" stroke="black" cx="215.66" cy="-274.91" rx="27" ry="18"/>
<text text-anchor="middle" x="215.66" y="-271.21" font-family="Times,serif" font-size="14.00">jmb</text>
</g>
<!-- plg&#45;&#45;jmb -->
<g id="edge6" class="edge">
<title>plg&#45;&#45;jmb</title>
<path fill="none" stroke="black" d="M224.37,-248.53C223.42,-251.41 222.44,-254.38 221.49,-257.25"/>
</g>
<!-- tte -->
<g id="node5" class="node">
<title>tte</title>
<ellipse fill="none" stroke="black" cx="854.02" cy="-307.83" rx="27" ry="18"/>
<text text-anchor="middle" x="854.02" y="-304.13" font-family="Times,serif" font-size="14.00">tte</text>
</g>
<!-- mnd -->
<g id="node28" class="node">
<title>mnd</title>
<ellipse fill="none" stroke="black" cx="787.31" cy="-327.57" rx="27" ry="18"/>
<text text-anchor="middle" x="787.31" y="-323.87" font-family="Times,serif" font-size="14.00">mnd</text>
</g>
<!-- tte&#45;&#45;mnd -->
<g id="edge8" class="edge">
<title>tte&#45;&#45;mnd</title>
<path fill="none" stroke="black" d="M829.18,-315.18C823.69,-316.8 817.88,-318.52 812.39,-320.15"/>
</g>
<!-- kpg -->
<g id="node6" class="node">
<title>kpg</title>
<ellipse fill="none" stroke="black" cx="844.78" cy="-18" rx="27" ry="18"/>
<text text-anchor="middle" x="844.78" y="-14.3" font-family="Times,serif" font-size="14.00">kpg</text>
</g>
<!-- mks -->
<g id="node18" class="node">
<title>mks</title>
<ellipse fill="none" stroke="black" cx="703.14" cy="-134.85" rx="27" ry="18"/>
<text text-anchor="middle" x="703.14" y="-131.15" font-family="Times,serif" font-size="14.00">mks</text>
</g>
<!-- kpg&#45;&#45;mks -->
<g id="edge9" class="edge">
<title>kpg&#45;&#45;mks</title>
<path fill="none" stroke="black" d="M827.7,-32.09C800.47,-54.55 747.55,-98.21 720.28,-120.7"/>
</g>
<!-- bna -->
<g id="node7" class="node">
<title>bna</title>
<ellipse fill="none" stroke="black" cx="27" cy="-464.71" rx="27" ry="18"/>
<text text-anchor="middle" x="27" y="-461.01" font-family="Times,serif" font-size="14.00">bna</text>
</g>
<!-- mdn -->
<g id="node30" class="node">
<title>mdn</title>
<ellipse fill="none" stroke="black" cx="138" cy="-407.14" rx="27" ry="18"/>
<text text-anchor="middle" x="138" y="-403.44" font-family="Times,serif" font-size="14.00">mdn</text>
</g>
<!-- bna&#45;&#45;mdn -->
<g id="edge10" class="edge">
<title>bna&#45;&#45;mdn</title>
<path fill="none" stroke="black" d="M47.77,-453.03C61.11,-445.53 75.97,-437.19 75.97,-437.19 75.97,-437.19 98.13,-426.45 115.96,-417.82"/>
</g>
<!-- lsm -->
<g id="node8" class="node">
<title>lsm</title>
<ellipse fill="none" stroke="black" cx="95.99" cy="-451.18" rx="27" ry="18"/>
<text text-anchor="middle" x="95.99" y="-447.48" font-family="Times,serif" font-size="14.00">lsm</text>
</g>
<!-- lsm&#45;&#45;mdn -->
<g id="edge11" class="edge">
<title>lsm&#45;&#45;mdn</title>
<path fill="none" stroke="black" d="M110.68,-435.78C114.75,-431.51 119.17,-426.88 123.24,-422.61"/>
</g>
<!-- pal -->
<g id="node9" class="node">
<title>pal</title>
<ellipse fill="none" stroke="black" cx="649.79" cy="-267.21" rx="27" ry="18"/>
<text text-anchor="middle" x="649.79" y="-263.51" font-family="Times,serif" font-size="14.00">pal</text>
</g>
<!-- pal&#45;&#45;bpp -->
<g id="edge12" class="edge">
<title>pal&#45;&#45;bpp</title>
<path fill="none" stroke="black" d="M624.48,-260.39C613.29,-257.38 600.17,-253.85 589,-250.84"/>
</g>
<!-- pwt -->
<g id="node10" class="node">
<title>pwt</title>
<ellipse fill="none" stroke="black" cx="425.49" cy="-83.28" rx="27" ry="18"/>
<text text-anchor="middle" x="425.49" y="-79.58" font-family="Times,serif" font-size="14.00">pwt</text>
</g>
<!-- smg -->
<g id="node14" class="node">
<title>smg</title>
<ellipse fill="none" stroke="black" cx="472.02" cy="-137.88" rx="27" ry="18"/>
<text text-anchor="middle" x="472.02" y="-134.18" font-family="Times,serif" font-size="14.00">smg</text>
</g>
<!-- pwt&#45;&#45;smg -->
<g id="edge13" class="edge">
<title>pwt&#45;&#45;smg</title>
<path fill="none" stroke="black" d="M438.95,-99.07C445.07,-106.25 452.3,-114.73 458.43,-121.93"/>
</g>
<!-- jap -->
<g id="node11" class="node">
<title>jap</title>
<ellipse fill="none" stroke="black" cx="1171.65" cy="-216.83" rx="27" ry="18"/>
<text text-anchor="middle" x="1171.65" y="-213.13" font-family="Times,serif" font-size="14.00">jap</text>
</g>
<!-- jap&#45;&#45;mks -->
<g id="edge14" class="edge">
<title>jap&#45;&#45;mks</title>
<path fill="none" stroke="black" d="M1145.46,-212.25C1063.37,-197.88 811.67,-153.84 729.44,-139.45"/>
</g>
<!-- bdg -->
<g id="node12" class="node">
<title>bdg</title>
<ellipse fill="none" stroke="black" cx="301.43" cy="-122.71" rx="27" ry="18"/>
<text text-anchor="middle" x="301.43" y="-119.01" font-family="Times,serif" font-size="14.00">bdg</text>
</g>
<!-- tsm -->
<g id="node33" class="node">
<title>tsm</title>
<ellipse fill="none" stroke="black" cx="363.46" cy="-82.68" rx="27" ry="18"/>
<text text-anchor="middle" x="363.46" y="-78.98" font-family="Times,serif" font-size="14.00">tsm</text>
</g>
<!-- bdg&#45;&#45;tsm -->
<g id="edge15" class="edge">
<title>bdg&#45;&#45;tsm</title>
<path fill="none" stroke="black" d="M321.06,-110.04C328.3,-105.37 336.5,-100.08 343.75,-95.4"/>
</g>
<!-- plk -->
<g id="node13" class="node">
<title>plk</title>
<ellipse fill="none" stroke="black" cx="492.2" cy="-244.09" rx="27" ry="18"/>
<text text-anchor="middle" x="492.2" y="-240.39" font-family="Times,serif" font-size="14.00">plk</text>
</g>
<!-- bjm -->
<g id="node29" class="node">
<title>bjm</title>
<ellipse fill="none" stroke="black" cx="535.46" cy="-200.05" rx="27" ry="18"/>
<text text-anchor="middle" x="535.46" y="-196.35" font-family="Times,serif" font-size="14.00">bjm</text>
</g>
<!-- plk&#45;&#45;bjm -->
<g id="edge16" class="edge">
<title>plk&#45;&#45;bjm</title>
<path fill="none" stroke="black" d="M507.33,-228.69C511.62,-224.32 516.29,-219.57 520.56,-215.22"/>
</g>
<!-- tgl -->
<g id="node26" class="node">
<title>tgl</title>
<ellipse fill="none" stroke="black" cx="410.02" cy="-128.94" rx="27" ry="18"/>
<text text-anchor="middle" x="410.02" y="-125.24" font-family="Times,serif" font-size="14.00">tgl</text>
</g>
<!-- smg&#45;&#45;tgl -->
<g id="edge17" class="edge">
<title>smg&#45;&#45;tgl</title>
<path fill="none" stroke="black" d="M445.37,-134.03C442.48,-133.62 439.54,-133.19 436.65,-132.78"/>
</g>
<!-- sbg -->
<g id="node15" class="node">
<title>sbg</title>
<ellipse fill="none" stroke="black" cx="106.15" cy="-313.36" rx="27" ry="18"/>
<text text-anchor="middle" x="106.15" y="-309.66" font-family="Times,serif" font-size="14.00">sbg</text>
</g>
<!-- sbg&#45;&#45;mdn -->
<g id="edge18" class="edge">
<title>sbg&#45;&#45;mdn</title>
<path fill="none" stroke="black" d="M112.14,-331C117.83,-347.76 126.35,-372.84 132.04,-389.58"/>
</g>
<!-- pms -->
<g id="node16" class="node">
<title>pms</title>
<ellipse fill="none" stroke="black" cx="160.68" cy="-363.07" rx="27" ry="18"/>
<text text-anchor="middle" x="160.68" y="-359.37" font-family="Times,serif" font-size="14.00">pms</text>
</g>
<!-- pms&#45;&#45;mdn -->
<g id="edge19" class="edge">
<title>pms&#45;&#45;mdn</title>
<path fill="none" stroke="black" d="M151.84,-380.24C150.2,-383.43 148.49,-386.76 146.85,-389.95"/>
</g>
<!-- gto -->
<g id="node17" class="node">
<title>gto</title>
<ellipse fill="none" stroke="black" cx="714.95" cy="-293.63" rx="27" ry="18"/>
<text text-anchor="middle" x="714.95" y="-289.93" font-family="Times,serif" font-size="14.00">gto</text>
</g>
<!-- gto&#45;&#45;mnd -->
<g id="edge20" class="edge">
<title>gto&#45;&#45;mnd</title>
<path fill="none" stroke="black" d="M737.05,-304C745.86,-308.13 755.99,-312.88 764.84,-317.03"/>
</g>
<!-- mam -->
<g id="node31" class="node">
<title>mam</title>
<ellipse fill="none" stroke="black" cx="642.16" cy="-193" rx="29.5" ry="18"/>
<text text-anchor="middle" x="642.16" y="-189.3" font-family="Times,serif" font-size="14.00">mam</text>
</g>
<!-- mks&#45;&#45;mam -->
<g id="edge23" class="edge">
<title>mks&#45;&#45;mam</title>
<path fill="none" stroke="black" d="M687.44,-149.83C678.4,-158.44 667.08,-169.23 658.02,-177.87"/>
</g>
<!-- mks&#45;&#45;jkt -->
<g id="edge21" class="edge">
<title>mks&#45;&#45;jkt</title>
<path fill="none" stroke="black" d="M676.85,-139.54C639.68,-146.16 576.26,-157.47 576.26,-157.47 576.26,-157.47 375.82,-163.64 301.82,-165.91"/>
</g>
<!-- kdi -->
<g id="node35" class="node">
<title>kdi</title>
<ellipse fill="none" stroke="black" cx="752.93" cy="-180.98" rx="27" ry="18"/>
<text text-anchor="middle" x="752.93" y="-177.28" font-family="Times,serif" font-size="14.00">kdi</text>
</g>
<!-- mks&#45;&#45;kdi -->
<g id="edge22" class="edge">
<title>mks&#45;&#45;kdi</title>
<path fill="none" stroke="black" d="M719.17,-149.7C724.85,-154.97 731.25,-160.89 736.93,-166.16"/>
</g>
<!-- mlg -->
<g id="node19" class="node">
<title>mlg</title>
<ellipse fill="none" stroke="black" cx="584.68" cy="-79.69" rx="27" ry="18"/>
<text text-anchor="middle" x="584.68" y="-75.99" font-family="Times,serif" font-size="14.00">mlg</text>
</g>
<!-- sby -->
<g id="node39" class="node">
<title>sby</title>
<ellipse fill="none" stroke="black" cx="576.34" cy="-137.87" rx="27" ry="18"/>
<text text-anchor="middle" x="576.34" y="-134.17" font-family="Times,serif" font-size="14.00">sby</text>
</g>
<!-- mlg&#45;&#45;sby -->
<g id="edge24" class="edge">
<title>mlg&#45;&#45;sby</title>
<path fill="none" stroke="black" d="M582.09,-97.78C581.1,-104.72 579.96,-112.64 578.96,-119.59"/>
</g>
<!-- srg -->
<g id="node20" class="node">
<title>srg</title>
<ellipse fill="none" stroke="black" cx="212.78" cy="-142.83" rx="27" ry="18"/>
<text text-anchor="middle" x="212.78" y="-139.13" font-family="Times,serif" font-size="14.00">srg</text>
</g>
<!-- srg&#45;&#45;jkt -->
<g id="edge25" class="edge">
<title>srg&#45;&#45;jkt</title>
<path fill="none" stroke="black" d="M236.23,-151.87C241.17,-153.78 246.38,-155.78 251.32,-157.69"/>
</g>
<!-- smr -->
<g id="node22" class="node">
<title>smr</title>
<ellipse fill="none" stroke="black" cx="580.67" cy="-288.4" rx="27" ry="18"/>
<text text-anchor="middle" x="580.67" y="-284.7" font-family="Times,serif" font-size="14.00">smr</text>
</g>
<!-- bpp&#45;&#45;smr -->
<g id="edge26" class="edge">
<title>bpp&#45;&#45;smr</title>
<path fill="none" stroke="black" d="M570.51,-261.59C571.65,-264.59 572.83,-267.71 573.97,-270.72"/>
</g>
<!-- btm -->
<g id="node23" class="node">
<title>btm</title>
<ellipse fill="none" stroke="black" cx="247.42" cy="-338.77" rx="27" ry="18"/>
<text text-anchor="middle" x="247.42" y="-335.07" font-family="Times,serif" font-size="14.00">btm</text>
</g>
<!-- btm&#45;&#45;jkt -->
<g id="edge27" class="edge">
<title>btm&#45;&#45;jkt</title>
<path fill="none" stroke="black" d="M250.3,-320.68C255.56,-287.64 266.66,-217.89 271.93,-184.84"/>
</g>
<!-- bdl -->
<g id="node24" class="node">
<title>bdl</title>
<ellipse fill="none" stroke="black" cx="178.66" cy="-186.86" rx="27" ry="18"/>
<text text-anchor="middle" x="178.66" y="-183.16" font-family="Times,serif" font-size="14.00">bdl</text>
</g>
<!-- bdl&#45;&#45;jkt -->
<g id="edge28" class="edge">
<title>bdl&#45;&#45;jkt</title>
<path fill="none" stroke="black" d="M204.42,-181.47C218.22,-178.58 235.16,-175.04 248.97,-172.15"/>
</g>
<!-- bgl -->
<g id="node38" class="node">
<title>bgl</title>
<ellipse fill="none" stroke="black" cx="116.62" cy="-225.3" rx="27" ry="18"/>
<text text-anchor="middle" x="116.62" y="-221.6" font-family="Times,serif" font-size="14.00">bgl</text>
</g>
<!-- bdl&#45;&#45;bgl -->
<g id="edge29" class="edge">
<title>bdl&#45;&#45;bgl</title>
<path fill="none" stroke="black" d="M158.69,-199.23C151.6,-203.62 143.63,-208.56 136.55,-212.95"/>
</g>
<!-- kdr -->
<g id="node25" class="node">
<title>kdr</title>
<ellipse fill="none" stroke="black" cx="522.63" cy="-93.83" rx="27" ry="18"/>
<text text-anchor="middle" x="522.63" y="-90.13" font-family="Times,serif" font-size="14.00">kdr</text>
</g>
<!-- kdr&#45;&#45;sby -->
<g id="edge30" class="edge">
<title>kdr&#45;&#45;sby</title>
<path fill="none" stroke="black" d="M539.92,-108.01C546.05,-113.04 552.95,-118.7 559.08,-123.72"/>
</g>
<!-- jmr -->
<g id="node27" class="node">
<title>jmr</title>
<ellipse fill="none" stroke="black" cx="646.7" cy="-73.07" rx="27" ry="18"/>
<text text-anchor="middle" x="646.7" y="-69.37" font-family="Times,serif" font-size="14.00">jmr</text>
</g>
<!-- jmr&#45;&#45;sby -->
<g id="edge31" class="edge">
<title>jmr&#45;&#45;sby</title>
<path fill="none" stroke="black" d="M630.74,-87.78C619.22,-98.38 603.75,-112.64 592.25,-123.23"/>
</g>
<!-- bjm&#45;&#45;jkt -->
<g id="edge32" class="edge">
<title>bjm&#45;&#45;jkt</title>
<path fill="none" stroke="black" d="M508.55,-196.61C458.47,-190.21 351.54,-176.55 301.57,-170.17"/>
</g>
<!-- mdn&#45;&#45;jkt -->
<g id="edge33" class="edge">
<title>mdn&#45;&#45;jkt</title>
<path fill="none" stroke="black" d="M156.93,-393.81C168.41,-385.72 180.87,-376.95 180.87,-376.95 180.87,-376.95 235.86,-288.79 235.86,-288.79 235.86,-288.79 244.26,-274.94 244.26,-274.94 244.26,-274.94 258.81,-230.94 258.81,-230.94 258.81,-230.94 265.62,-203.62 270.35,-184.63"/>
</g>
<!-- jkt&#45;&#45;sby -->
<g id="edge34" class="edge">
<title>jkt&#45;&#45;sby</title>
<path fill="none" stroke="black" d="M301.81,-165.48C355.82,-162.94 472,-157.48 472,-157.48 472,-157.48 519.38,-148.58 550.28,-142.77"/>
</g>
<!-- sby&#45;&#45;dpr -->
<g id="edge35" class="edge">
<title>sby&#45;&#45;dpr</title>
<path fill="none" stroke="black" d="M597.31,-126.09C624.02,-111.07 666.74,-87.05 666.74,-87.05 666.74,-87.05 675.3,-73.25 675.3,-73.25 675.3,-73.25 682.23,-58.67 688.12,-46.25"/>
</g>
</g>
</svg>
